# xmcd CD database file
# Copyright (C) 1993-1998 Ti Kan
# 
# Track frame offsets:
#     150
#     14685
#     31810
#     44128
#     63685
#     75418
#     91283
#     107053
#     123583
#     143968
#     156853
#     170153
#     187740
#     206440
#     222053
#     237605
# 
# Disc length: 3394 seconds
# 
# Revision: 1
# Processed by: cddbd v1.4PL0 Copyright (c) Steve Scherf et al.
# Submitted via: DiscPlay 4.0.4
# 
DISCID=e50d4010
DTITLE=Brett Marvin and the Thunderbolts - Boogie Street
DYEAR=1900
DGENRE=BLUES
TTITLE0=Crossroads
TTITLE1=No Worries
TTITLE2=Be Ready When He Comes
TTITLE3=Hurry Up Train
TTITLE4=How Many More Years
TTITLE5=You're Gonna Need Somebody By Your Side
TTITLE6=Little Red Rooster
TTITLE7=Big City Beat
TTITLE8=Free Again
TTITLE9=Phonograph Blues
TTITLE10=Greedy Woman
TTITLE11=Devil And The Deep Blue Sea
TTITLE12=Lost Lover Blues
TTITLE13=Tough Times
TTITLE14=A Change Is Bound To Come
TTITLE15=Big City Beat Remix
EXTD=
EXTT0=
EXTT1=
EXTT2=
EXTT3=
EXTT4=
EXTT5=
EXTT6=
EXTT7=
EXTT8=
EXTT9=
EXTT10=
EXTT11=
EXTT12=
EXTT13=
EXTT14=
EXTT15=
PLAYORDER=
